<?xml version="1.0" encoding="UTF-8" standalone="no"?>
<!DOCTYPE svg PUBLIC "-//W3C//DTD SVG 1.1//EN"
 "http://www.w3.org/Graphics/SVG/1.1/DTD/svg11.dtd">
<!-- Generated by graphviz version 2.26.3 (20100126.1600)
 -->
<!-- Title: G Pages: 1 -->
<svg width="612pt" height="526pt"
 viewBox="0.00 0.00 612.00 526.00" xmlns="http://www.w3.org/2000/svg" xmlns:xlink="http://www.w3.org/1999/xlink">
<g id="graph1" class="graph" transform="scale(1 1) rotate(0) translate(4 522)">
<title>G</title>
<polygon fill="white" stroke="white" points="-4,5 -4,-522 609,-522 609,5 -4,5"/>
<g id="graph2" class="cluster"><title>cluster_Global</title>
<polyline fill="none" stroke="gray" points="20,-44 584,-44 "/>
<path fill="none" stroke="gray" d="M584,-44C590,-44 596,-50 596,-56"/>
<polyline fill="none" stroke="gray" points="596,-56 596,-498 "/>
<path fill="none" stroke="gray" d="M596,-498C596,-504 590,-510 584,-510"/>
<polyline fill="none" stroke="gray" points="584,-510 20,-510 "/>
<path fill="none" stroke="gray" d="M20,-510C14,-510 8,-504 8,-498"/>
<polyline fill="none" stroke="gray" points="8,-498 8,-56 "/>
<path fill="none" stroke="gray" d="M8,-56C8,-50 14,-44 20,-44"/>
<text text-anchor="middle" x="302" y="-496.1" font-family="Times Roman,serif" font-size="11.00" fill="gray">\</text>
</g>
<g id="graph3" class="cluster"><title>cluster_\Opauth</title>
<polyline fill="none" stroke="gray" points="28,-52 576,-52 "/>
<path fill="none" stroke="gray" d="M576,-52C582,-52 588,-58 588,-64"/>
<polyline fill="none" stroke="gray" points="588,-64 588,-468 "/>
<path fill="none" stroke="gray" d="M588,-468C588,-474 582,-480 576,-480"/>
<polyline fill="none" stroke="gray" points="576,-480 28,-480 "/>
<path fill="none" stroke="gray" d="M28,-480C22,-480 16,-474 16,-468"/>
<polyline fill="none" stroke="gray" points="16,-468 16,-64 "/>
<path fill="none" stroke="gray" d="M16,-64C16,-58 22,-52 28,-52"/>
<text text-anchor="middle" x="302" y="-466.1" font-family="Times Roman,serif" font-size="11.00" fill="gray">Opauth</text>
</g>
<g id="graph4" class="cluster"><title>cluster_\Opauth\Transport</title>
<polyline fill="none" stroke="gray" points="269,-322 540,-322 "/>
<path fill="none" stroke="gray" d="M540,-322C546,-322 552,-328 552,-334"/>
<polyline fill="none" stroke="gray" points="552,-334 552,-438 "/>
<path fill="none" stroke="gray" d="M552,-438C552,-444 546,-450 540,-450"/>
<polyline fill="none" stroke="gray" points="540,-450 269,-450 "/>
<path fill="none" stroke="gray" d="M269,-450C263,-450 257,-444 257,-438"/>
<polyline fill="none" stroke="gray" points="257,-438 257,-334 "/>
<path fill="none" stroke="gray" d="M257,-334C257,-328 263,-322 269,-322"/>
<text text-anchor="middle" x="404.5" y="-436.1" font-family="Times Roman,serif" font-size="11.00" fill="gray">Transport</text>
</g>
<!-- \\Opauth\\Transport\\Base -->
<g id="node4" class="node"><title>\\Opauth\\Transport\\Base</title>
<polygon fill="none" stroke="black" points="350,-393 266,-393 266,-357 350,-357 350,-393"/>
<text text-anchor="start" x="274" y="-380.433" font-family="Courier,monospace" font-size="11.00">«abstract»</text>
<text text-anchor="start" x="294" y="-367.233" font-family="Courier,monospace" font-size="11.00">Base</text>
</g>
<!-- \\Opauth\\TransportInterface -->
<g id="node12" class="node"><title>\\Opauth\\TransportInterface</title>
<polygon fill="none" stroke="black" points="162,-393 24,-393 24,-357 162,-357 162,-393"/>
<text text-anchor="middle" x="93" y="-372.1" font-family="Courier,monospace" font-size="11.00">TransportInterface</text>
</g>
<!-- \\Opauth\\Transport\\Base&#45;&gt;\\Opauth\\TransportInterface -->
<g id="edge5" class="edge"><title>\\Opauth\\Transport\\Base&#45;&gt;\\Opauth\\TransportInterface</title>
<path fill="none" stroke="black" stroke-dasharray="1,5" d="M265.266,-375C238.745,-375 203.84,-375 172.388,-375"/>
<polygon fill="none" stroke="black" points="172.313,-371.5 162.313,-375 172.313,-378.5 172.313,-371.5"/>
</g>
<!-- \\Opauth\\Transport\\File -->
<g id="node5" class="node"><title>\\Opauth\\Transport\\File</title>
<polygon fill="none" stroke="black" points="544,-420 490,-420 490,-384 544,-384 544,-420"/>
<text text-anchor="middle" x="517" y="-399.1" font-family="Courier,monospace" font-size="11.00">File</text>
</g>
<!-- \\Opauth\\Transport\\File&#45;&gt;\\Opauth\\Transport\\Base -->
<g id="edge7" class="edge"><title>\\Opauth\\Transport\\File&#45;&gt;\\Opauth\\Transport\\Base</title>
<path fill="none" stroke="black" d="M489.677,-398.47C457.036,-394.253 401.696,-387.104 360.651,-381.802"/>
<polygon fill="none" stroke="black" points="360.912,-378.307 350.546,-380.496 360.015,-385.249 360.912,-378.307"/>
</g>
<!-- \\Opauth\\Transport\\Curl -->
<g id="node6" class="node"><title>\\Opauth\\Transport\\Curl</title>
<polygon fill="none" stroke="black" points="544,-366 490,-366 490,-330 544,-330 544,-366"/>
<text text-anchor="middle" x="517" y="-345.1" font-family="Courier,monospace" font-size="11.00">Curl</text>
</g>
<!-- \\Opauth\\Transport\\Curl&#45;&gt;\\Opauth\\Transport\\Base -->
<g id="edge9" class="edge"><title>\\Opauth\\Transport\\Curl&#45;&gt;\\Opauth\\Transport\\Base</title>
<path fill="none" stroke="black" d="M489.677,-351.53C457.036,-355.747 401.696,-362.896 360.651,-368.198"/>
<polygon fill="none" stroke="black" points="360.015,-364.751 350.546,-369.504 360.912,-371.693 360.015,-364.751"/>
</g>
<!-- \\Opauth\\Opauth -->
<g id="node7" class="node"><title>\\Opauth\\Opauth</title>
<polygon fill="none" stroke="black" points="545,-312 489,-312 489,-276 545,-276 545,-312"/>
<text text-anchor="middle" x="517" y="-291.1" font-family="Courier,monospace" font-size="11.00">Opauth</text>
</g>
<!-- \\Opauth\\Request -->
<g id="node8" class="node"><title>\\Opauth\\Request</title>
<polygon fill="none" stroke="black" points="549,-258 485,-258 485,-222 549,-222 549,-258"/>
<text text-anchor="middle" x="517" y="-237.1" font-family="Courier,monospace" font-size="11.00">Request</text>
</g>
<!-- \\Opauth\\AutoLoader -->
<g id="node9" class="node"><title>\\Opauth\\AutoLoader</title>
<polygon fill="none" stroke="black" points="559,-204 475,-204 475,-168 559,-168 559,-204"/>
<text text-anchor="middle" x="517" y="-183.1" font-family="Courier,monospace" font-size="11.00">AutoLoader</text>
</g>
<!-- \\Opauth\\Response -->
<g id="node10" class="node"><title>\\Opauth\\Response</title>
<polygon fill="none" stroke="black" points="552,-96 482,-96 482,-60 552,-60 552,-96"/>
<text text-anchor="middle" x="517" y="-75.1" font-family="Courier,monospace" font-size="11.00">Response</text>
</g>
<!-- \\ArrayAccess -->
<g id="node18" class="node"><title>\\ArrayAccess</title>
<ellipse fill="none" stroke="black" cx="308" cy="-18" rx="73.0388" ry="18.3848"/>
<text text-anchor="middle" x="308" y="-14.4" font-family="Times Roman,serif" font-size="14.00" fill="gray">\ArrayAccess</text>
</g>
<!-- \\Opauth\\Response&#45;&gt;\\ArrayAccess -->
<g id="edge11" class="edge"><title>\\Opauth\\Response&#45;&gt;\\ArrayAccess</title>
<path fill="none" stroke="black" stroke-dasharray="1,5" d="M481.072,-67.6856C449.359,-58.5815 402.562,-45.1469 365.622,-34.5423"/>
<polygon fill="none" stroke="black" points="366.551,-31.1676 355.973,-31.7723 364.619,-37.8958 366.551,-31.1676"/>
</g>
<!-- \\Opauth\\AbstractStrategy -->
<g id="node11" class="node"><title>\\Opauth\\AbstractStrategy</title>
<polygon fill="none" stroke="black" points="580,-150 454,-150 454,-114 580,-114 580,-150"/>
<text text-anchor="start" x="483" y="-137.433" font-family="Courier,monospace" font-size="11.00">«abstract»</text>
<text text-anchor="start" x="462.5" y="-124.233" font-family="Courier,monospace" font-size="11.00">AbstractStrategy</text>
</g>
<!-- \\Opauth\\StrategyInterface -->
<g id="node13" class="node"><title>\\Opauth\\StrategyInterface</title>
<polygon fill="none" stroke="black" points="373,-150 243,-150 243,-114 373,-114 373,-150"/>
<text text-anchor="middle" x="308" y="-129.1" font-family="Courier,monospace" font-size="11.00">StrategyInterface</text>
</g>
<!-- \\Opauth\\AbstractStrategy&#45;&gt;\\Opauth\\StrategyInterface -->
<g id="edge13" class="edge"><title>\\Opauth\\AbstractStrategy&#45;&gt;\\Opauth\\StrategyInterface</title>
<path fill="none" stroke="black" stroke-dasharray="1,5" d="M453.726,-132C431.643,-132 406.635,-132 383.649,-132"/>
<polygon fill="none" stroke="black" points="383.592,-128.5 373.592,-132 383.592,-135.5 383.592,-128.5"/>
</g>
</g>
</svg>
